# MagicaVoxel @ Ephtracy

# group
g WingsPilderL

# material
mtllib WingsPilderL.mtl
usemtl palette

# normals
vn -1 0 0
vn 1 0 0
vn 0 0 1
vn 0 0 -1
vn 0 -1 0
vn 0 1 0

# texcoords
vt 0.849609 0.5
vt 0.962891 0.5
vt 0.966797 0.5
vt 0.970703 0.5

# verts
v -9.5 3 4
v -9.5 3 -2
v -9.5 4 4
v -9.5 4 -2
v -2.5 0 4
v -2.5 0 -4
v -2.5 2 4
v -2.5 2 -4
v -1.5 0 5
v -1.5 0 4
v -1.5 0 -4
v -1.5 0 -5
v -1.5 2 5
v -1.5 2 4
v -1.5 2 -4
v -1.5 2 -5
v -0.5 0 6
v -0.5 0 5
v -0.5 0 -5
v -0.5 0 -6
v -0.5 2 6
v -0.5 2 5
v -0.5 2 -5
v -0.5 2 -6
v 2.5 2 1
v 2.5 2 -1
v 2.5 3 1
v 2.5 3 -1
v 7.5 0 5
v 7.5 0 4
v 7.5 0 -4
v 7.5 0 -5
v 7.5 1 5
v 7.5 1 4
v 7.5 1 -4
v 7.5 1 -5
v 8.5 0 4
v 8.5 0 -4
v 8.5 1 4
v 8.5 1 1
v 8.5 1 -0
v 8.5 1 -1
v 8.5 1 -4
v -1.5 0 4
v -1.5 0 -4
v -1.5 1 4
v -1.5 1 2
v -1.5 1 -0
v -1.5 1 -1
v -1.5 1 -4
v -0.5 0 5
v -0.5 0 4
v -0.5 0 -4
v -0.5 0 -5
v -0.5 1 5
v -0.5 1 4
v -0.5 1 -4
v -0.5 1 -5
v 1.5 3 4
v 1.5 3 3
v 1.5 4 4
v 1.5 4 3
v 2.5 3 3
v 2.5 3 2
v 2.5 4 3
v 2.5 4 2
v 3.5 3 2
v 3.5 3 1
v 3.5 4 2
v 3.5 4 1
v 4.5 2 1
v 4.5 2 -1
v 4.5 3 1
v 4.5 3 -1
v 4.5 3 -2
v 4.5 4 1
v 4.5 4 -2
v 7.5 0 6
v 7.5 0 5
v 7.5 0 -5
v 7.5 0 -6
v 7.5 2 6
v 7.5 2 5
v 7.5 2 -5
v 7.5 2 -6
v 8.5 0 5
v 8.5 0 4
v 8.5 0 -4
v 8.5 0 -5
v 8.5 2 5
v 8.5 2 4
v 8.5 2 -4
v 8.5 2 -5
v 9.5 0 4
v 9.5 0 -4
v 9.5 2 4
v 9.5 2 -4
v -0.5 0 6
v -0.5 2 6
v 7.5 0 6
v 7.5 2 6
v -1.5 0 5
v -1.5 2 5
v -0.5 0 5
v -0.5 2 5
v 7.5 0 5
v 7.5 2 5
v 8.5 0 5
v 8.5 2 5
v -9.5 3 4
v -9.5 4 4
v -2.5 0 4
v -2.5 2 4
v -1.5 0 4
v -1.5 2 4
v 1.5 3 4
v 1.5 4 4
v 8.5 0 4
v 8.5 2 4
v 9.5 0 4
v 9.5 2 4
v 1.5 3 3
v 1.5 4 3
v 2.5 3 3
v 2.5 4 3
v 2.5 3 2
v 2.5 4 2
v 3.5 3 2
v 3.5 4 2
v 2.5 2 1
v 2.5 3 1
v 3.5 3 1
v 3.5 4 1
v 4.5 2 1
v 4.5 3 1
v 4.5 4 1
v -1.5 0 -4
v -1.5 1 -4
v -0.5 0 -4
v -0.5 1 -4
v 7.5 0 -4
v 7.5 1 -4
v 8.5 0 -4
v 8.5 1 -4
v -0.5 0 -5
v -0.5 1 -5
v 1.5 1 -5
v 3.5 1 -5
v 4.5 1 -5
v 7.5 0 -5
v 7.5 1 -5
v -0.5 0 5
v -0.5 1 5
v 2.5 1 5
v 3.5 1 5
v 5.5 1 5
v 7.5 0 5
v 7.5 1 5
v -1.5 0 4
v -1.5 1 4
v -0.5 0 4
v -0.5 1 4
v 7.5 0 4
v 7.5 1 4
v 8.5 0 4
v 8.5 1 4
v 2.5 2 -1
v 2.5 3 -1
v 4.5 2 -1
v 4.5 3 -1
v -9.5 3 -2
v -9.5 4 -2
v 4.5 3 -2
v 4.5 4 -2
v -2.5 0 -4
v -2.5 2 -4
v -1.5 0 -4
v -1.5 2 -4
v 8.5 0 -4
v 8.5 2 -4
v 9.5 0 -4
v 9.5 2 -4
v -1.5 0 -5
v -1.5 2 -5
v -0.5 0 -5
v -0.5 2 -5
v 7.5 0 -5
v 7.5 2 -5
v 8.5 0 -5
v 8.5 2 -5
v -0.5 0 -6
v -0.5 2 -6
v 7.5 0 -6
v 7.5 2 -6
v -0.5 0 6
v 7.5 0 6
v -1.5 0 5
v -0.5 0 5
v 7.5 0 5
v 8.5 0 5
v -2.5 0 4
v -1.5 0 4
v -0.5 0 4
v 7.5 0 4
v 8.5 0 4
v 9.5 0 4
v -2.5 0 -4
v -1.5 0 -4
v -0.5 0 -4
v 7.5 0 -4
v 8.5 0 -4
v 9.5 0 -4
v -1.5 0 -5
v -0.5 0 -5
v 7.5 0 -5
v 8.5 0 -5
v -0.5 0 -6
v 7.5 0 -6
v -0.5 1 5
v 2.5 1 5
v 3.5 1 5
v 5.5 1 5
v 7.5 1 5
v -1.5 1 4
v -0.5 1 4
v 3.5 1 4
v 4.5 1 4
v 7.5 1 4
v 8.5 1 4
v -1.5 1 2
v 2.5 1 2
v -0.5 1 1
v 2.5 1 1
v 4.5 1 1
v 5.5 1 1
v 8.5 1 1
v -1.5 1 -0
v -0.5 1 -0
v 7.5 1 -0
v 8.5 1 -0
v -1.5 1 -1
v 1.5 1 -1
v 2.5 1 -1
v 4.5 1 -1
v 7.5 1 -1
v 8.5 1 -1
v 4.5 1 -2
v 7.5 1 -2
v -1.5 1 -4
v -0.5 1 -4
v 2.5 1 -4
v 3.5 1 -4
v 7.5 1 -4
v 8.5 1 -4
v -0.5 1 -5
v 1.5 1 -5
v 3.5 1 -5
v 4.5 1 -5
v 7.5 1 -5
v -9.5 3 4
v 1.5 3 4
v 1.5 3 3
v 2.5 3 3
v 2.5 3 2
v 3.5 3 2
v 2.5 3 1
v 3.5 3 1
v 2.5 3 -1
v 4.5 3 -1
v -9.5 3 -2
v 4.5 3 -2
v -0.5 2 6
v 7.5 2 6
v -1.5 2 5
v -0.5 2 5
v 2.5 2 5
v 3.5 2 5
v 5.5 2 5
v 7.5 2 5
v 8.5 2 5
v -2.5 2 4
v -1.5 2 4
v -0.5 2 4
v 3.5 2 4
v 4.5 2 4
v 7.5 2 4
v 8.5 2 4
v 9.5 2 4
v -1.5 2 2
v 2.5 2 2
v -0.5 2 1
v 2.5 2 1
v 4.5 2 1
v 5.5 2 1
v 8.5 2 1
v -1.5 2 -0
v -0.5 2 -0
v 7.5 2 -0
v 8.5 2 -0
v -1.5 2 -1
v 1.5 2 -1
v 2.5 2 -1
v 4.5 2 -1
v 7.5 2 -1
v 8.5 2 -1
v 4.5 2 -2
v 7.5 2 -2
v -2.5 2 -4
v -1.5 2 -4
v -0.5 2 -4
v 2.5 2 -4
v 3.5 2 -4
v 7.5 2 -4
v 8.5 2 -4
v 9.5 2 -4
v -1.5 2 -5
v -0.5 2 -5
v 1.5 2 -5
v 3.5 2 -5
v 4.5 2 -5
v 7.5 2 -5
v 8.5 2 -5
v -0.5 2 -6
v 7.5 2 -6
v -9.5 4 4
v 1.5 4 4
v 1.5 4 3
v 2.5 4 3
v 2.5 4 2
v 3.5 4 2
v 3.5 4 1
v 4.5 4 1
v -9.5 4 -2
v 4.5 4 -2

# faces
f 3/1/1 2/1/1 1/1/1
f 4/1/1 2/1/1 3/1/1
f 7/4/1 6/4/1 5/4/1
f 8/4/1 6/4/1 7/4/1
f 13/4/1 10/4/1 9/4/1
f 14/4/1 10/4/1 13/4/1
f 15/4/1 12/4/1 11/4/1
f 16/4/1 12/4/1 15/4/1
f 21/4/1 18/4/1 17/4/1
f 22/4/1 18/4/1 21/4/1
f 23/4/1 20/4/1 19/4/1
f 24/4/1 20/4/1 23/4/1
f 27/4/1 26/4/1 25/4/1
f 28/4/1 26/4/1 27/4/1
f 33/4/1 30/4/1 29/4/1
f 34/4/1 30/4/1 33/4/1
f 35/4/1 32/4/1 31/4/1
f 36/4/1 32/4/1 35/4/1
f 39/4/1 38/4/1 37/4/1
f 40/4/1 38/4/1 39/4/1
f 41/4/1 38/4/1 40/4/1
f 42/4/1 38/4/1 41/4/1
f 43/4/1 38/4/1 42/4/1
f 44/4/2 45/4/2 46/4/2
f 46/4/2 45/4/2 47/4/2
f 47/4/2 45/4/2 48/4/2
f 48/4/2 45/4/2 49/4/2
f 49/4/2 45/4/2 50/4/2
f 51/4/2 52/4/2 55/4/2
f 55/4/2 52/4/2 56/4/2
f 53/4/2 54/4/2 57/4/2
f 57/4/2 54/4/2 58/4/2
f 59/1/2 60/1/2 61/1/2
f 61/1/2 60/1/2 62/1/2
f 63/1/2 64/1/2 65/1/2
f 65/1/2 64/1/2 66/1/2
f 67/1/2 68/1/2 69/1/2
f 69/1/2 68/1/2 70/1/2
f 71/4/2 72/4/2 73/4/2
f 73/4/2 72/4/2 74/4/2
f 73/1/2 74/1/2 76/1/2
f 74/1/2 75/1/2 76/1/2
f 76/1/2 75/1/2 77/1/2
f 78/4/2 79/4/2 82/4/2
f 82/4/2 79/4/2 83/4/2
f 80/4/2 81/4/2 84/4/2
f 84/4/2 81/4/2 85/4/2
f 86/4/2 87/4/2 90/4/2
f 90/4/2 87/4/2 91/4/2
f 88/4/2 89/4/2 92/4/2
f 92/4/2 89/4/2 93/4/2
f 94/4/2 95/4/2 96/4/2
f 96/4/2 95/4/2 97/4/2
f 100/4/3 99/4/3 98/4/3
f 101/4/3 99/4/3 100/4/3
f 104/4/3 103/4/3 102/4/3
f 105/4/3 103/4/3 104/4/3
f 108/4/3 107/4/3 106/4/3
f 109/4/3 107/4/3 108/4/3
f 114/4/3 113/4/3 112/4/3
f 115/4/3 113/4/3 114/4/3
f 116/1/3 111/1/3 110/1/3
f 117/1/3 111/1/3 116/1/3
f 120/4/3 119/4/3 118/4/3
f 121/4/3 119/4/3 120/4/3
f 124/1/3 123/1/3 122/1/3
f 125/1/3 123/1/3 124/1/3
f 128/1/3 127/1/3 126/1/3
f 129/1/3 127/1/3 128/1/3
f 132/4/3 131/4/3 130/4/3
f 134/4/3 132/4/3 130/4/3
f 135/1/3 133/1/3 132/1/3
f 135/4/3 132/4/3 134/4/3
f 136/1/3 133/1/3 135/1/3
f 139/4/3 138/4/3 137/4/3
f 140/4/3 138/4/3 139/4/3
f 143/4/3 142/4/3 141/4/3
f 144/4/3 142/4/3 143/4/3
f 147/4/3 146/4/3 145/4/3
f 148/4/3 147/4/3 145/4/3
f 149/4/3 148/4/3 145/4/3
f 150/4/3 149/4/3 145/4/3
f 151/4/3 149/4/3 150/4/3
f 152/4/4 153/4/4 154/4/4
f 152/4/4 154/4/4 155/4/4
f 152/4/4 155/4/4 156/4/4
f 152/4/4 156/4/4 157/4/4
f 157/4/4 156/4/4 158/4/4
f 159/4/4 160/4/4 161/4/4
f 161/4/4 160/4/4 162/4/4
f 163/4/4 164/4/4 165/4/4
f 165/4/4 164/4/4 166/4/4
f 167/4/4 168/4/4 169/4/4
f 169/4/4 168/4/4 170/4/4
f 171/1/4 172/1/4 173/1/4
f 173/1/4 172/1/4 174/1/4
f 175/4/4 176/4/4 177/4/4
f 177/4/4 176/4/4 178/4/4
f 179/4/4 180/4/4 181/4/4
f 181/4/4 180/4/4 182/4/4
f 183/4/4 184/4/4 185/4/4
f 185/4/4 184/4/4 186/4/4
f 187/4/4 188/4/4 189/4/4
f 189/4/4 188/4/4 190/4/4
f 191/4/4 192/4/4 193/4/4
f 193/4/4 192/4/4 194/4/4
f 198/4/5 196/4/5 195/4/5
f 199/4/5 196/4/5 198/4/5
f 202/4/5 198/4/5 197/4/5
f 203/4/5 198/4/5 202/4/5
f 204/4/5 200/4/5 199/4/5
f 205/4/5 200/4/5 204/4/5
f 207/4/5 202/4/5 201/4/5
f 208/4/5 202/4/5 207/4/5
f 211/4/5 206/4/5 205/4/5
f 212/4/5 206/4/5 211/4/5
f 213/4/5 209/4/5 208/4/5
f 214/4/5 209/4/5 213/4/5
f 215/4/5 211/4/5 210/4/5
f 216/4/5 211/4/5 215/4/5
f 217/4/5 215/4/5 214/4/5
f 218/4/5 215/4/5 217/4/5
f 225/3/5 220/3/5 219/3/5
f 226/4/5 221/4/5 220/4/5
f 226/2/5 222/2/5 221/2/5
f 227/2/5 222/2/5 226/2/5
f 228/3/5 223/3/5 222/3/5
f 230/3/5 225/3/5 224/3/5
f 231/3/5 220/3/5 225/3/5
f 231/3/5 225/3/5 230/3/5
f 231/4/5 226/4/5 220/4/5
f 231/4/5 227/4/5 226/4/5
f 232/2/5 231/2/5 230/2/5
f 233/4/5 227/4/5 231/4/5
f 233/2/5 231/2/5 232/2/5
f 234/2/5 222/2/5 227/2/5
f 234/4/5 227/4/5 233/4/5
f 235/3/5 229/3/5 228/3/5
f 235/2/5 222/2/5 234/2/5
f 235/3/5 228/3/5 222/3/5
f 236/3/5 229/3/5 235/3/5
f 237/2/5 232/2/5 230/2/5
f 238/4/5 233/4/5 232/4/5
f 238/2/5 232/2/5 237/2/5
f 238/4/5 234/4/5 233/4/5
f 238/4/5 236/4/5 235/4/5
f 238/4/5 235/4/5 234/4/5
f 239/4/5 236/4/5 238/4/5
f 240/4/5 236/4/5 239/4/5
f 241/4/5 238/4/5 237/4/5
f 241/4/5 239/4/5 238/4/5
f 242/4/5 239/4/5 241/4/5
f 243/4/5 239/4/5 242/4/5
f 244/4/5 239/4/5 243/4/5
f 245/2/5 240/2/5 239/2/5
f 245/4/5 239/4/5 244/4/5
f 246/2/5 240/2/5 245/2/5
f 247/4/5 244/4/5 243/4/5
f 247/2/5 245/2/5 244/2/5
f 248/3/5 246/3/5 245/3/5
f 248/2/5 245/2/5 247/2/5
f 249/3/5 242/3/5 241/3/5
f 250/3/5 242/3/5 249/3/5
f 251/2/5 243/2/5 242/2/5
f 251/4/5 247/4/5 243/4/5
f 252/4/5 247/4/5 251/4/5
f 253/3/5 246/3/5 248/3/5
f 253/3/5 248/3/5 247/3/5
f 254/3/5 246/3/5 253/3/5
f 255/3/5 242/3/5 250/3/5
f 256/2/5 252/2/5 251/2/5
f 256/3/5 242/3/5 255/3/5
f 256/2/5 251/2/5 242/2/5
f 257/4/5 247/4/5 252/4/5
f 257/2/5 252/2/5 256/2/5
f 258/3/5 253/3/5 247/3/5
f 258/4/5 247/4/5 257/4/5
f 259/3/5 253/3/5 258/3/5
f 262/1/5 261/1/5 260/1/5
f 264/1/5 263/1/5 262/1/5
f 266/1/5 264/1/5 262/1/5
f 266/1/5 265/1/5 264/1/5
f 267/1/5 265/1/5 266/1/5
f 268/1/5 266/1/5 262/1/5
f 270/1/5 262/1/5 260/1/5
f 270/1/5 269/1/5 268/1/5
f 270/1/5 268/1/5 262/1/5
f 271/1/5 269/1/5 270/1/5
f 272/4/6 273/4/6 275/4/6
f 275/4/6 273/4/6 276/4/6
f 276/4/6 273/4/6 277/4/6
f 277/4/6 273/4/6 278/4/6
f 278/4/6 273/4/6 279/4/6
f 274/4/6 275/4/6 282/4/6
f 275/3/6 276/3/6 283/3/6
f 282/4/6 275/4/6 283/4/6
f 276/4/6 277/4/6 284/4/6
f 277/2/6 278/2/6 284/2/6
f 284/2/6 278/2/6 285/2/6
f 279/4/6 280/4/6 286/4/6
f 278/3/6 279/3/6 286/3/6
f 286/4/6 280/4/6 287/4/6
f 281/4/6 282/4/6 289/4/6
f 282/3/6 283/3/6 289/3/6
f 283/3/6 276/3/6 290/3/6
f 289/3/6 283/3/6 290/3/6
f 284/4/6 285/4/6 290/4/6
f 276/4/6 284/4/6 290/4/6
f 289/2/6 290/2/6 291/2/6
f 290/4/6 285/4/6 292/4/6
f 291/2/6 290/2/6 292/2/6
f 285/2/6 278/2/6 293/2/6
f 292/4/6 285/4/6 293/4/6
f 286/3/6 287/3/6 294/3/6
f 293/2/6 278/2/6 294/2/6
f 278/3/6 286/3/6 294/3/6
f 287/4/6 288/4/6 295/4/6
f 294/3/6 287/3/6 295/3/6
f 281/4/6 289/4/6 296/4/6
f 289/2/6 291/2/6 296/2/6
f 291/4/6 292/4/6 297/4/6
f 296/2/6 291/2/6 297/2/6
f 293/4/6 294/4/6 298/4/6
f 294/4/6 295/4/6 298/4/6
f 295/4/6 288/4/6 299/4/6
f 298/4/6 295/4/6 299/4/6
f 281/4/6 296/4/6 300/4/6
f 296/4/6 297/4/6 300/4/6
f 297/4/6 292/4/6 301/4/6
f 300/4/6 297/4/6 301/4/6
f 301/4/6 292/4/6 302/4/6
f 293/4/6 298/4/6 303/4/6
f 298/2/6 299/2/6 304/2/6
f 303/4/6 298/4/6 304/4/6
f 299/4/6 288/4/6 305/4/6
f 304/2/6 299/2/6 305/2/6
f 303/2/6 304/2/6 306/2/6
f 302/4/6 303/4/6 306/4/6
f 304/3/6 305/3/6 307/3/6
f 306/2/6 304/2/6 307/2/6
f 281/4/6 300/4/6 308/4/6
f 300/3/6 301/3/6 309/3/6
f 308/4/6 300/4/6 309/4/6
f 309/3/6 301/3/6 310/3/6
f 301/2/6 302/2/6 311/2/6
f 302/4/6 306/4/6 311/4/6
f 311/4/6 306/4/6 312/4/6
f 307/3/6 305/3/6 313/3/6
f 306/3/6 307/3/6 313/3/6
f 305/4/6 288/4/6 314/4/6
f 313/3/6 305/3/6 314/3/6
f 314/4/6 288/4/6 315/4/6
f 309/4/6 310/4/6 316/4/6
f 310/3/6 301/3/6 317/3/6
f 316/4/6 310/4/6 317/4/6
f 311/2/6 312/2/6 318/2/6
f 317/3/6 301/3/6 318/3/6
f 301/2/6 311/2/6 318/2/6
f 312/4/6 306/4/6 319/4/6
f 318/2/6 312/2/6 319/2/6
f 306/3/6 313/3/6 320/3/6
f 319/4/6 306/4/6 320/4/6
f 313/4/6 314/4/6 321/4/6
f 320/3/6 313/3/6 321/3/6
f 321/4/6 314/4/6 322/4/6
f 318/4/6 319/4/6 323/4/6
f 317/4/6 318/4/6 323/4/6
f 320/4/6 321/4/6 323/4/6
f 319/4/6 320/4/6 323/4/6
f 323/4/6 321/4/6 324/4/6
f 325/1/6 326/1/6 327/1/6
f 327/1/6 328/1/6 329/1/6
f 329/1/6 330/1/6 331/1/6
f 325/1/6 327/1/6 333/1/6
f 331/1/6 332/1/6 333/1/6
f 329/1/6 331/1/6 333/1/6
f 327/1/6 329/1/6 333/1/6
f 333/1/6 332/1/6 334/1/6
